# xmcd
#
# Track frame offsets: 
#        150
#        14415
#        28913
#        44238
#        57693
#        71587
#        84020
#        97664
#        111098
#        123787
#        138504
#        152023
#        166132
#        178251
#        192004
#        206582
#        219498
#        231520
#        245763
#        257761
#        270457
#        282759
#
# Disc length: 3953 seconds
#
# Revision: 0
# Processed by: cddbd v1.5.1PL0 Copyright (c) Steve Scherf et al.
# Submitted via: ExactAudioCopy v0.95a5
#
DISCID=3f0f6f16
DTITLE=John Lee Hooker - Blues From The Motor City
DYEAR=1900
DGENRE=Blues
TTITLE0=Boogie Chillen'
TTITLE1=Sally May
TTITLE2=Shady Grove Blues
TTITLE3=Momma Poppa Boogie
TTITLE4=Hobo Blues
TTITLE5=House Rent Boogie
TTITLE6=Crawling King Snake
TTITLE7=Ground Hog Blues
TTITLE8=Leave My Wife Alone
TTITLE9=Sugar Mama
TTITLE10=Walking The Boogie
TTITLE11=I'm In The Mood
TTITLE12=Burnin' Hell
TTITLE13=Black Cat Blues
TTITLE14=Four Women In My Life
TTITLE15=Bumble Bee Blues
TTITLE16=Rock Me Mama
TTITLE17=Cold Chills All Over Me
TTITLE18=No More Doggin'
TTITLE19=It Hurts Me So
TTITLE20=Love Money Can't Buy
TTITLE21=Ride 'Til I Die
EXTD=
EXTT0=
EXTT1=
EXTT2=
EXTT3=
EXTT4=
EXTT5=
EXTT6=
EXTT7=
EXTT8=
EXTT9=
EXTT10=
EXTT11=
EXTT12=
EXTT13=
EXTT14=
EXTT15=
EXTT16=
EXTT17=
EXTT18=
EXTT19=
EXTT20=
EXTT21=
PLAYORDER=
